<svg id="Layer_1" data-name="Layer 1" xmlns="http://www.w3.org/2000/svg" width="48mm" height="48mm" viewBox="0 0 136.06299 136.06299"><title>View (MOOGTER) Mic icon</title><path d="M74.33339,120.20171a10.65734,10.65734,0,0,1-1.36688,5.06415,10.08631,10.08631,0,0,1-3.71924,3.73907,11.26908,11.26908,0,0,1-9.67767.647,14.94857,14.94857,0,0,1-6.87781-5.69,24.31449,24.31449,0,0,1-3.27484-7.53863A48.03543,48.03543,0,0,1,48.39577,101.016a95.45593,95.45593,0,0,1,2.43555-14.84155c.5697-2.42707,1.2387-4.8227,1.9328-7.20636a52.73554,52.73554,0,0,0,1.83544-6.95984,11.95481,11.95481,0,0,0,.13959-3.32837A2.7137,2.7137,0,0,0,53.5165,66.4514a4.59936,4.59936,0,0,0-2.95118-.12774,17.17169,17.17169,0,0,0-3.31268,1.12347,66.69507,66.69507,0,0,0-12.32532,7.7655A116.42058,116.42058,0,0,0,23.7859,84.83727,116.80636,116.80636,0,0,1,34.40321,74.56474a67.77334,67.77334,0,0,1,12.13422-8.62316,18.88762,18.88762,0,0,1,3.58905-1.441,6.45577,6.45577,0,0,1,4.28418.069A4.13732,4.13732,0,0,1,56.2303,66.201a6.04965,6.04965,0,0,1,.76941,2.1015,14.17429,14.17429,0,0,1,.08014,4.0205,54.04892,54.04892,0,0,1-1.50073,7.3957c-.55139,2.37274-1.07654,4.74945-1.50025,7.139A91.7886,91.7886,0,0,0,52.5201,101.218a43.64114,43.64114,0,0,0,1.64648,13.84723,19.21776,19.21776,0,0,0,2.876,5.79157,9.41176,9.41176,0,0,0,4.46783,3.382,5.29413,5.29413,0,0,0,4.54578-.49811,3.89168,3.89168,0,0,0,1.71594-3.53894Z" style="fill:#58595b"/><path d="M83.60359,45.14018l-4.92095,70.43457a3.43153,3.43153,0,0,1-3.43154,3.43153H66.761a3.43153,3.43153,0,0,1-3.43153-3.43153l-4.9209-70.43457C66.45216,49.84136,74.83492,50.08928,83.60359,45.14018Z" style="fill:#58595b"/><circle cx="71.00606" cy="25.03337" r="21.67897" style="fill:#58595b"/></svg>